<svg xmlns="http://www.w3.org/2000/svg" xmlns:xlink="http://www.w3.org/1999/xlink" version="1.1" width="256" height="256" viewBox="0 0 256 256" xml:space="preserve">
<g style="stroke: none; stroke-width: 0; stroke-dasharray: none; stroke-linecap: butt; stroke-linejoin: miter; stroke-miterlimit: 10; fill: none; fill-rule: nonzero; opacity: 1;" transform="translate(1.4065934065934016 1.4065934065934016) scale(2.81 2.81)">
	<path d="M 45 90 L 45 90 C 20.147 90 0 69.853 0 45 v 0 C 0 20.147 20.147 0 45 0 h 0 c 24.853 0 45 20.147 45 45 v 0 C 90 69.853 69.853 90 45 90 z" style="stroke: none; stroke-width: 1; stroke-dasharray: none; stroke-linecap: butt; stroke-linejoin: miter; stroke-miterlimit: 10; fill: rgb(62,80,121); fill-rule: nonzero; opacity: 1;" transform=" matrix(1 0 0 1 0 0) " stroke-linecap="round"/>
	<path d="M 24.401 10.458 c -1.158 0 -2.226 -0.383 -3.083 -1.03 c -0.984 -0.742 -1.69 -1.829 -1.94 -3.083 c -0.062 -0.31 -0.095 -0.63 -0.099 -0.957 h -3.307 v 9.036 l -0.004 4.949 c 0 1.323 -0.862 2.445 -2.056 2.84 c -0.347 0.115 -0.721 0.169 -1.111 0.147 c -0.498 -0.027 -0.964 -0.178 -1.369 -0.42 c -0.863 -0.516 -1.447 -1.452 -1.463 -2.522 c -0.025 -1.673 1.328 -3.037 2.999 -3.037 c 0.33 0 0.647 0.054 0.944 0.152 v -2.469 v -0.888 c -0.313 -0.046 -0.631 -0.07 -0.954 -0.07 c -1.83 0 -3.541 0.761 -4.765 2.131 c -0.925 1.036 -1.479 2.357 -1.565 3.742 c -0.112 1.82 0.554 3.55 1.845 4.827 c 0.19 0.187 0.389 0.361 0.597 0.522 c 1.107 0.852 2.461 1.314 3.887 1.314 c 0.322 0 0.641 -0.024 0.954 -0.07 c 1.332 -0.197 2.561 -0.807 3.531 -1.766 c 1.192 -1.178 1.85 -2.742 1.857 -4.406 l -0.017 -7.391 c 0.568 0.439 1.19 0.802 1.857 1.083 c 1.038 0.438 2.138 0.66 3.27 0.659 v -2.401 v -0.891 C 24.411 10.458 24.402 10.458 24.401 10.458 L 24.401 10.458 z" style="stroke: none; stroke-width: 1; stroke-dasharray: none; stroke-linecap: butt; stroke-linejoin: miter; stroke-miterlimit: 10; fill: rgb(255,255,255); fill-rule: nonzero; opacity: 1;" transform=" matrix(2.81 0 0 2.81 1.4065934065934016 1.4065934065934016) " stroke-linecap="round"/>
</g>
</svg>