<svg height="70" viewBox="0 0 620.82 284.18" width="153" xmlns="http://www.w3.org/2000/svg"><g fill="#7396f7"><path d="m119.23 38.9-2.93-3-27.3-27.32a38.9 38.9 0 0 1 51.87 2.81l106.5 106.54-24.56 24.56zm-5.9 245.28a38.64 38.64 0 0 1 -27.5-11.39l-41.37-41.37 88.95-88.95-64.77-64.77-20.08 20.08 44.67 44.66-42.5 42.5a38.89 38.89 0 0 1 -50.73 1.7l30.38-30.38h-.05l13.78-13.78-19-19a38.9 38.9 0 0 1 1.8-53.08l41.73-41.81 87.14 87.14a38.94 38.94 0 0 1 -.15 53.63l-62.06 62.06 19.76 19.76 109.33-109.33a38.9 38.9 0 0 1 -2.79 51.9l-79 79a38.6 38.6 0 0 1 -27.5 11.39"/><path d="m331.35 29c4.84 0 7.14-2.05 7.14-7.15s-2.38-7.06-7.14-7.06-7.15 1.81-7.15 7.06c0 5.43 2 7.15 7.15 7.15"/><path d="m305.13 57.2v24.15h10.68v-58.58h-10.68v24.15h-24.98v-24.15h-10.76v58.58h10.76v-24.15z"/><path d="m325.76 34.11h10.93v47.24h-10.93z"/><path d="m376.32 49.47v.25c0 5.58-3.46 8.38-10.6 8.38-6.41 0-10.19-2.8-10.19-8.3v-.25c0-6.08 4.52-8.87 10.35-8.87s10.44 2.22 10.44 8.79m-22.85 38.29c0-3.29 2.55-5.83 8.38-6.41h8.47c6.9 0 9.36 2.14 9.36 5.42 0 4.52-4.35 7.15-14.13 7.15h-1.72c-7.4 0-10.36-3-10.36-6zm33.94-61.87v-1.56h-12.49v.74c0 4.52-.66 6.74-3.29 7.72a22.68 22.68 0 0 1 -6.16 1.07l-2.38.16c-11.26.74-18.33 5.84-18.33 15.29 0 6.9 3.21 11.34 9.7 13.39-6.57 1.4-10.19 4.6-10.19 9.45s2.79 8 9.2 8.87c-7.47 1.73-10.6 5.43-10.6 10.52 0 4.44 2 7.89 8.38 9.78 3.21 1 7.73 1.48 13.64 1.48h.58c16.43 0 24.24-6.25 24.24-16.6 0-8.46-5.75-13.89-19-13.89h-9.51c-5.59 0-7.56-.9-7.56-3.12 0-1.56.74-2.46 4-3a41.45 41.45 0 0 1 7.32-.41h.74c13.39 0 21.36-6.08 21.36-16.1v-.33c0-7.15-4.77-12.49-13.56-13.72 10.11-.09 13.89-2.14 13.89-9.7"/><path d="m405 81.35v-24.73c0-8.46 3.95-14.3 11.51-14.3 7.8 0 10.43 5.1 10.43 12.57v26.46h10.86v-29.41c0-11.75-5.67-19-17.09-19-7.48 0-12.82 3.61-15.7 9.36v-24.22h-10.35v63.27z"/><path d="m294 166.08c9.77 0 16.35-3.61 19.8-9.12a18.18 18.18 0 0 0 2.46-9.2c0-6.49-2.46-10.44-6.24-12.82s-8.55-3.61-13.4-4.6c-5.09-1.07-9.61-2-12.4-4a5.31 5.31 0 0 1 -2-4.51c0-4.11 2.71-7.56 9.86-7.56 8.13 0 11.33 3.12 11.75 9.86h11.17c-.41-11.75-7.23-18.9-22.76-18.9-9.45 0-15.53 3.37-18.65 8.46a17.15 17.15 0 0 0 -2.22 8.3c0 6.41 2.38 10.19 6.16 12.57s8.47 3.45 13.07 4.44c5.17 1 9.94 2 12.81 4.19a5.82 5.82 0 0 1 2.06 4.85c0 4.76-3.53 8.62-11.34 8.62-9.12 0-13.06-3.94-13.31-12.07h-11.5c.32 9.28 3.28 15.69 10.43 19 3.62 1.72 8.3 2.54 14.22 2.54"/><path d="m359 142.09c0 9.37-4.68 14.63-12.73 14.63-7.81 0-12.66-5.84-12.66-15v-.82c0-9.37 5.1-15.28 12.9-15.28 7.4 0 12.49 5.34 12.49 15.44zm10.93.16v-1.15c0-15.94-7.81-24.65-20.13-24.65-8.22 0-13.72 4.28-16.27 10.77l-1.15-9.62h-9v63.52h10.44v-24.57c2.79 5.75 8 9.29 15.77 9.29s14.22-3.54 17.67-10.6a29.21 29.21 0 0 0 2.63-13"/><path d="m411.7 136.75h-25.63c1.23-7.48 5.93-11.75 13.39-11.75s11.5 4.52 12.24 11.75m10.77 8.46v-5c0-6.08-1.65-11.91-5.43-16.43s-9.53-7.32-17.66-7.32c-9.94 0-17.17 4.2-21.12 11.59a27.39 27.39 0 0 0 -3 13.06v1.15c0 14.63 7.81 23.83 23.75 23.83 12.41 0 20.05-5.58 22.76-15.2h-11.55c-1.64 4.11-5 6.33-10.76 6.33-7.8 0-12.57-4.27-13.47-12z"/><path d="m464 136.75h-25.64c1.23-7.48 5.91-11.75 13.39-11.75s11.5 4.52 12.24 11.75m10.77 8.46v-5c0-6.08-1.65-11.91-5.43-16.43s-9.53-7.32-17.66-7.32c-9.94 0-17.17 4.2-21.12 11.59a27.39 27.39 0 0 0 -3 13.06v1.15c0 14.63 7.81 23.83 23.75 23.83 12.41 0 20.05-5.58 22.76-15.2h-11.55c-1.64 4.11-5 6.33-10.76 6.33-7.81 0-12.57-4.27-13.47-12z"/><path d="m516.4 141.35c0 9.37-4.93 15.2-13 15.2-7.14 0-12.24-5.09-12.24-15.2v-.9c0-9.45 4.52-15 12.66-15 7.8 0 12.57 5.92 12.57 15zm10.19 23.5v-63.27h-10.44v24.16c-2.71-5.83-7.89-9.2-15.69-9.2-8.06 0-14.3 3.61-17.75 10.68a29.53 29.53 0 0 0 -2.63 13.06v1.15c0 15.94 8 24.41 20.05 24.41 8.46 0 13.8-4.44 16.35-10.85l1.15 9.86z"/><path d="m296.42 198.89h16.76v-9.53h-43.79v9.53h16.1v49.05h10.93z"/><path d="m312.41 247.94h10.59v-21.86c0-7.39 1.23-11.5 5.17-13.39 2-1 4.77-1.48 8.55-1.48h4.68v-10.93h-3.2c-9 0-13.81 3.7-15.7 11.51l-1.39-11.1h-8.71z"/><path d="m378.48 226.58a14.7 14.7 0 0 1 -7.15 12.16 15.15 15.15 0 0 1 -8.05 2.13q-7.39 0-7.4-5.91a5.6 5.6 0 0 1 2.8-4.93c2.21-1.4 4.51-2.06 10.27-3 4.27-.66 7.55-1.64 9.53-3zm10.27 21.36v-31.88c0-6.82-2.47-11.83-8.63-14.46-3.12-1.4-7.07-2.06-12.24-2.06-13.56 0-21.45 7.07-22.19 17.83h11.1c.32-6.08 3.86-9.45 11.66-9.45 7.4 0 9.94 2.47 9.94 6.41s-3.36 5-11.83 6.08c-5.91.91-9.45 1.57-12.24 2.55a15.45 15.45 0 0 0 -4 2 13 13 0 0 0 -6.16 11.59c0 7.72 5.18 12.65 15.45 12.65 9.78 0 16.1-4.52 19.31-10.68l1.15 9.45z"/><path d="m403.59 195.6c4.84 0 7.14-2 7.14-7.15 0-5.26-2.38-7.07-7.14-7.07s-7.15 1.81-7.15 7.07c0 5.42 2 7.15 7.15 7.15"/><path d="m398 200.69h10.93v47.24h-10.93z"/><path d="m429.26 247.94v-24.65c0-8.79 3.7-14.38 11.75-14.38 7.72 0 10.19 4.85 10.19 12.57v26.46h10.85v-29.09c0-11.75-6.08-19.31-17.51-19.31-8.13 0-13.47 4.11-16 10.6l-1-9.45h-9.12v47.25z"/><path d="m476.75 195.6c4.84 0 7.14-2 7.14-7.15 0-5.26-2.38-7.07-7.14-7.07s-7.15 1.81-7.15 7.07c0 5.42 2 7.15 7.15 7.15"/><path d="m471.16 200.69h10.93v47.24h-10.93z"/><path d="m502.42 247.94v-24.65c0-8.79 3.7-14.38 11.75-14.38 7.72 0 10.19 4.85 10.19 12.57v26.46h10.85v-29.09c0-11.75-6.08-19.31-17.51-19.31-8.13 0-13.47 4.11-16 10.6l-1-9.45h-9.12v47.25z"/><path d="m574.43 216.06v.25c0 5.58-3.45 8.38-10.6 8.38-6.41 0-10.19-2.8-10.19-8.3v-.25c0-6.08 4.52-8.87 10.36-8.87s10.43 2.22 10.43 8.79m-22.84 38.29c0-3.29 2.55-5.84 8.38-6.41h8.46c6.9 0 9.37 2.14 9.37 5.42 0 4.52-4.35 7.15-14.13 7.15h-1.73c-7.39 0-10.35-3-10.35-6zm33.93-61.87v-1.56h-12.52v.74c0 4.51-.65 6.73-3.28 7.72a23.08 23.08 0 0 1 -6.16 1.07l-2.39.16c-11.25.74-18.32 5.84-18.32 15.28 0 6.91 3.2 11.34 9.7 13.4-6.58 1.39-10.19 4.6-10.19 9.45s2.79 8 9.2 8.87c-7.48 1.73-10.6 5.42-10.6 10.52 0 4.43 2 7.89 8.38 9.78 3.21 1 7.72 1.47 13.64 1.47h.58c16.43 0 24.23-6.24 24.23-16.59 0-8.47-5.75-13.89-19-13.89h-9.53c-5.58 0-7.56-.9-7.56-3.12 0-1.56.74-2.47 4-3a41.33 41.33 0 0 1 7.31-.41h.74c13.39 0 21.36-6.08 21.36-16.11v-.33c0-7.14-4.76-12.48-13.55-13.72 10.1-.08 13.88-2.13 13.88-9.69"/><path d="m595.82 189.88v2.24h3.81v11.59h2.58v-11.59h4v-2.24zm12.12 0v13.84h2.42v-10.08l.33.56 3.46 4.72h.37l3.47-4.7.41-.68v10.17h2.42v-13.82h-2.34l-4.1 5.57-4.08-5.59z"/></g></svg>